<svg width="37" height="38" viewBox="0 0 37 38" fill="none" xmlns="http://www.w3.org/2000/svg">
<path d="M6.16666 30.0833V15.8333C6.16666 15.3319 6.27611 14.8569 6.49503 14.4083C6.71395 13.9597 7.0156 13.5902 7.39999 13.3L16.65 6.17496C17.1896 5.75274 17.8062 5.54163 18.5 5.54163C19.1937 5.54163 19.8104 5.75274 20.35 6.17496L29.6 13.3C29.9854 13.5902 30.2876 13.9597 30.5065 14.4083C30.7254 14.8569 30.8344 15.3319 30.8333 15.8333V30.0833C30.8333 30.9541 30.5312 31.6999 29.9268 32.3205C29.3225 32.9412 28.5969 33.251 27.75 33.25H23.125C22.6882 33.25 22.3223 33.098 22.0273 32.794C21.7324 32.49 21.5844 32.1142 21.5833 31.6666V23.75C21.5833 23.3013 21.4353 22.9256 21.1393 22.6226C20.8433 22.3197 20.4774 22.1677 20.0417 22.1666H16.9583C16.5215 22.1666 16.1556 22.3186 15.8607 22.6226C15.5657 22.9266 15.4177 23.3024 15.4167 23.75V31.6666C15.4167 32.1152 15.2687 32.4915 14.9727 32.7955C14.6767 33.0995 14.3108 33.251 13.875 33.25H9.24999C8.40207 33.25 7.67646 32.9402 7.07316 32.3205C6.46985 31.7009 6.16768 30.9552 6.16666 30.0833Z" fill="black"/>
</svg>
